<svg width="56" height="56" viewBox="0 0 56 56" fill="none" xmlns="http://www.w3.org/2000/svg">
<rect width="56" height="56" fill="#0088FF"/>
<path d="M49 27C49 15.954 40.046 7 29 7C17.954 7 9 15.954 9 27C9 30.286 9.794 33.46 11.29 36.3L9.058 44.88C8.98377 45.1666 8.98564 45.4675 9.06344 45.7531C9.14125 46.0387 9.29228 46.2991 9.50159 46.5084C9.71091 46.7177 9.97125 46.8688 10.2569 46.9466C10.5425 47.0244 10.8434 47.0262 11.13 46.952L19.71 44.718C22.5753 46.222 25.7639 47.0052 29 47C40.046 47 49 38.046 49 27ZM29 19C30.0609 19 31.0783 19.4214 31.8284 20.1716C32.5786 20.9217 33 21.9391 33 23V31C33 32.0609 32.5786 33.0783 31.8284 33.8284C31.0783 34.5786 30.0609 35 29 35H23C21.9391 35 20.9217 34.5786 20.1716 33.8284C19.4214 33.0783 19 32.0609 19 31V23C19 21.9391 19.4214 20.9217 20.1716 20.1716C20.9217 19.4214 21.9391 19 23 19H29ZM35 29.324V24.676L38.468 21.392C38.6809 21.1901 38.9484 21.0552 39.2372 21.0038C39.5261 20.9524 39.8236 20.9868 40.0931 21.1028C40.3626 21.2188 40.5921 21.4113 40.7533 21.6564C40.9145 21.9016 41.0003 22.1886 41 22.482V31.518C41.0003 31.8114 40.9145 32.0984 40.7533 32.3436C40.5921 32.5887 40.3626 32.7812 40.0931 32.8972C39.8236 33.0132 39.5261 33.0476 39.2372 32.9962C38.9484 32.9448 38.6809 32.8099 38.468 32.608L35 29.324Z" fill="white"/>
</svg>
